<svg version="1.1" id="Layer_1" xmlns="http://www.w3.org/2000/svg" xmlns:xlink="http://www.w3.org/1999/xlink" x="0px" y="0px"
	 viewBox="0 0 378.9 167" style="enable-background:new 0 0 378.9 167;" xml:space="preserve">
<style type="text/css">
	.planet.st0{fill:#FFFFFF;}
</style>
<g>
	<path class="planet st0" d="M119.9,71.8c0-2.1-1.7-3.7-3.7-3.7c-2.1,0-3.7,1.7-3.7,3.7c0,2.1,1.7,3.7,3.7,3.7
		C118.2,75.6,119.9,73.9,119.9,71.8z"/>
	<path class="planet st0" d="M160.2,81.2c0-0.4,0-0.8,0-1.2c0-0.2,0-0.4,0-0.7c0-0.4,0-0.8-0.1-1.1c0-0.2,0-0.4,0-0.7
		c0-0.4-0.1-0.8-0.1-1.2c0-0.2,0-0.4-0.1-0.6c-0.1-0.6-0.1-1.1-0.2-1.7c0,0,0,0,0-0.1c-0.1-0.6-0.2-1.2-0.2-1.7
		c0-0.2-0.1-0.4-0.1-0.6c-0.1-0.4-0.1-0.8-0.2-1.2c0-0.2-0.1-0.4-0.1-0.7c-0.1-0.4-0.1-0.7-0.2-1.1c0-0.2-0.1-0.4-0.1-0.7
		c-0.1-0.4-0.2-0.7-0.2-1.1c0-0.2-0.1-0.4-0.1-0.6c-0.1-0.5-0.2-1-0.4-1.5c0-0.1,0-0.2-0.1-0.3c-0.1-0.5-0.3-1-0.4-1.6
		c-0.1-0.2-0.1-0.4-0.2-0.6c-0.1-0.3-0.2-0.7-0.3-1c-0.1-0.2-0.1-0.4-0.2-0.7c-0.1-0.3-0.2-0.6-0.3-1c-0.1-0.2-0.2-0.5-0.2-0.7
		c-0.1-0.3-0.2-0.7-0.3-1c-0.1-0.2-0.2-0.4-0.2-0.6c-0.1-0.4-0.3-0.8-0.5-1.2c-0.1-0.2-0.2-0.4-0.2-0.6c-0.2-0.4-0.3-0.8-0.5-1.3
		c-0.1-0.2-0.2-0.4-0.3-0.7c-0.1-0.3-0.3-0.6-0.4-0.9c-0.1-0.2-0.2-0.5-0.3-0.7c-0.1-0.3-0.3-0.5-0.4-0.8c-0.1-0.2-0.2-0.5-0.3-0.7
		c-0.1-0.3-0.3-0.5-0.4-0.8c-0.1-0.2-0.2-0.5-0.4-0.7c-0.2-0.3-0.3-0.6-0.5-0.9c-0.2-0.4-0.4-0.7-0.6-1.1c-0.2-0.3-0.3-0.6-0.5-0.9
		c-0.1-0.2-0.3-0.5-0.4-0.7c-0.1-0.2-0.3-0.5-0.4-0.7c-0.2-0.3-0.3-0.5-0.5-0.8c-0.1-0.2-0.3-0.4-0.4-0.7c-0.2-0.3-0.3-0.5-0.5-0.8
		c-0.1-0.2-0.3-0.4-0.4-0.6c-0.2-0.3-0.3-0.5-0.5-0.8c-0.1-0.2-0.2-0.4-0.4-0.5c-0.4-0.5-0.8-1.1-1.2-1.6c-0.1-0.1-0.2-0.3-0.3-0.4
		c-0.2-0.3-0.4-0.5-0.6-0.8c-0.1-0.2-0.2-0.3-0.4-0.5c-0.2-0.3-0.4-0.5-0.6-0.8c-0.1-0.2-0.3-0.3-0.4-0.5c-0.2-0.3-0.4-0.5-0.7-0.8
		c-0.1-0.1-0.2-0.3-0.4-0.4c-0.2-0.3-0.5-0.6-0.7-0.8c-0.1-0.1-0.1-0.1-0.2-0.2c-0.9-1-1.8-2-2.7-2.9c-0.1-0.1-0.2-0.2-0.3-0.3
		c-0.3-0.3-0.5-0.5-0.8-0.8c-0.1-0.1-0.2-0.2-0.3-0.3c-0.3-0.3-0.6-0.5-0.8-0.8c-0.1-0.1-0.2-0.2-0.3-0.3c-0.7-0.6-1.4-1.3-2.1-1.9
		c-0.7-0.6-1.4-1.2-2.2-1.8c-0.1,0-0.1-0.1-0.2-0.1c-0.3-0.3-0.7-0.5-1-0.8c-0.1-0.1-0.2-0.1-0.2-0.2c-0.3-0.3-0.7-0.5-1-0.8
		c-0.1,0-0.1-0.1-0.2-0.1c-0.9-0.6-1.8-1.3-2.7-1.9c-0.7-0.5-1.4-0.9-2.2-1.4c0,0,0,0,0,0c-0.4-0.2-0.8-0.5-1.2-0.7
		c0,0-0.1-0.1-0.1-0.1c-0.4-0.2-0.8-0.5-1.2-0.7c0,0,0,0-0.1,0c-1.3-0.8-2.7-1.5-4.1-2.1c-0.8-0.4-1.7-0.8-2.6-1.2c0,0-0.1,0-0.1,0
		c-0.5-0.2-0.9-0.4-1.4-0.6c0,0,0,0,0,0c-1.6-0.6-3.1-1.2-4.8-1.8c-0.8-0.3-1.6-0.5-2.4-0.8c0,0,0,0-0.1,0c-0.5-0.1-0.9-0.3-1.4-0.4
		c0,0-0.1,0-0.1,0c0,0,0,0,0,0c-6.3-1.7-13-2.7-19.9-2.7c-11,0-21.4,2.4-30.8,6.6c0,0,0,0,0,0c-0.1,0.1-0.3,0.1-0.4,0.2
		c-0.3,0.2-0.7,0.3-1,0.5c-0.2,0.1-0.4,0.2-0.5,0.3c-0.4,0.2-0.9,0.4-1.3,0.6c-0.1,0.1-0.3,0.1-0.4,0.2c-0.3,0.2-0.7,0.3-1,0.5
		c-0.2,0.1-0.3,0.2-0.5,0.3c-0.4,0.2-0.8,0.5-1.3,0.7c-0.1,0.1-0.3,0.2-0.4,0.3c-0.3,0.2-0.6,0.4-0.9,0.6c-0.2,0.1-0.3,0.2-0.5,0.3
		c-0.4,0.2-0.8,0.5-1.2,0.8c-0.1,0.1-0.3,0.2-0.4,0.3c-0.3,0.2-0.6,0.4-0.9,0.6c-0.2,0.1-0.3,0.2-0.5,0.3c-0.4,0.3-0.8,0.5-1.2,0.8
		c-0.2,0.1-0.3,0.2-0.5,0.3c-0.3,0.2-0.6,0.4-0.8,0.6c-0.2,0.1-0.3,0.2-0.5,0.4c-0.4,0.3-0.7,0.6-1.1,0.9c-0.2,0.1-0.3,0.2-0.5,0.4
		c-0.3,0.2-0.5,0.4-0.8,0.6c-0.2,0.1-0.3,0.3-0.5,0.4c-0.4,0.3-0.7,0.6-1.1,0.9c-0.2,0.1-0.3,0.3-0.5,0.4c-0.2,0.2-0.5,0.4-0.7,0.7
		c-0.2,0.1-0.3,0.3-0.5,0.4c-0.3,0.3-0.7,0.6-1,0.9c-0.2,0.1-0.3,0.3-0.5,0.4c-0.2,0.2-0.5,0.4-0.7,0.7c-0.1,0.1-0.3,0.3-0.4,0.4
		c-0.3,0.3-0.6,0.6-0.9,1c-0.2,0.2-0.3,0.3-0.5,0.5c-0.2,0.2-0.4,0.4-0.6,0.7c-0.1,0.2-0.3,0.3-0.4,0.5c-0.3,0.3-0.6,0.7-0.9,1
		c-0.2,0.2-0.3,0.4-0.5,0.5c-0.2,0.2-0.4,0.5-0.6,0.7c-0.2,0.2-0.3,0.4-0.5,0.6c-0.3,0.3-0.5,0.6-0.8,1c-0.2,0.2-0.3,0.4-0.5,0.6
		c-0.2,0.2-0.3,0.5-0.5,0.7c-0.2,0.3-0.4,0.5-0.6,0.8c-0.2,0.3-0.4,0.6-0.6,0.8c-0.1,0.2-0.3,0.4-0.4,0.6c-0.2,0.2-0.3,0.5-0.5,0.7
		c-0.2,0.3-0.4,0.6-0.6,0.9c-0.2,0.3-0.3,0.5-0.5,0.8c-0.1,0.2-0.3,0.4-0.4,0.7c-0.1,0.2-0.3,0.4-0.4,0.7c-0.2,0.3-0.4,0.7-0.6,1
		c-0.1,0.2-0.3,0.5-0.4,0.7c-0.1,0.2-0.3,0.5-0.4,0.7c-0.1,0.2-0.2,0.4-0.4,0.6c-0.2,0.4-0.4,0.8-0.6,1.1c-0.1,0.2-0.2,0.4-0.3,0.6
		c-0.1,0.3-0.3,0.5-0.4,0.8c-0.1,0.2-0.2,0.4-0.3,0.6c-0.2,0.4-0.4,0.8-0.6,1.3c-0.1,0.2-0.2,0.4-0.3,0.6c-0.1,0.3-0.2,0.5-0.4,0.8
		c-0.1,0.2-0.2,0.4-0.3,0.6c-0.2,0.5-0.4,0.9-0.6,1.4c-0.1,0.2-0.2,0.4-0.2,0.6c-0.1,0.3-0.2,0.6-0.3,0.9c-0.1,0.2-0.1,0.4-0.2,0.5
		c-0.2,0.5-0.4,1-0.5,1.5c-0.1,0.2-0.1,0.4-0.2,0.5c-0.1,0.3-0.2,0.6-0.3,0.9C14,60,14,60.2,13.9,60.4c-0.2,0.5-0.3,1.1-0.5,1.6
		c-0.1,0.2-0.1,0.3-0.2,0.5c-0.1,0.3-0.2,0.6-0.3,0.9c0,0.1-0.1,0.3-0.1,0.4c-0.2,0.6-0.3,1.1-0.4,1.7c0,0.2-0.1,0.3-0.1,0.5
		c-0.1,0.3-0.2,0.6-0.2,1c0,0.1,0,0.2-0.1,0.3c-0.1,0.6-0.3,1.2-0.4,1.9c0,0.2-0.1,0.3-0.1,0.5c-0.1,0.3-0.1,0.7-0.2,1
		c0,0,0,0.1,0,0.1c-0.1,0.7-0.2,1.4-0.3,2.1c0,0.2,0,0.3-0.1,0.5c0,0.3-0.1,0.7-0.1,1c0,0,0,0,0,0c-0.4,3-0.6,6.1-0.6,9.2
		c0,28,15.4,52.5,38.2,65.3c0,0,0,0,0,0c0.1,0.1,0.3,0.1,0.4,0.2c0.5,0.3,0.9,0.5,1.4,0.7c0.2,0.1,0.4,0.2,0.5,0.3
		c0.3,0.1,0.5,0.3,0.8,0.4c0.2,0.1,0.3,0.2,0.5,0.3c0.6,0.3,1.2,0.6,1.7,0.8c0.1,0,0.2,0.1,0.2,0.1c0.3,0.1,0.6,0.3,0.9,0.4
		c0.1,0.1,0.3,0.1,0.4,0.2c1,0.5,2.1,0.9,3.2,1.3c0.1,0,0.2,0.1,0.2,0.1c1.2,0.4,2.3,0.8,3.5,1.2c0,0,0,0,0,0c1.6,0.5,3.3,1,4.9,1.4
		c0,0,0,0,0,0l0,0c5.8,1.4,11.8,2.2,18,2.2c20.4,0,39-8.2,52.5-21.5l0,0c0,0,0,0,0,0c0.5-0.5,0.9-0.9,1.4-1.4c0,0,0,0,0.1-0.1
		c0.5-0.5,0.9-1,1.4-1.5c0,0,0,0,0,0c0.9-1,1.8-2,2.7-3.1c0,0,0,0,0,0c0.4-0.5,0.8-1,1.2-1.5c0-0.1,0.1-0.1,0.1-0.2
		c0.4-0.5,0.8-1,1.1-1.5c0-0.1,0.1-0.1,0.1-0.2c0.4-0.5,0.7-1,1.1-1.5c0-0.1,0.1-0.1,0.1-0.2c0.4-0.5,0.7-1.1,1.1-1.6c0,0,0,0,0,0
		c0.3-0.5,0.7-1,1-1.5c0,0,0,0,0,0c0.3-0.5,0.6-1,0.9-1.5c0,0,0,0,0,0c0.3-0.5,0.6-1,0.9-1.5c0,0,0,0,0-0.1c0.3-0.5,0.5-1,0.8-1.5
		c0,0,0-0.1,0.1-0.1c0.3-0.5,0.5-1,0.8-1.5c0,0,0-0.1,0.1-0.1c0.2-0.5,0.5-1,0.7-1.5c0-0.1,0.1-0.1,0.1-0.2c0.2-0.5,0.4-1,0.7-1.5
		c0-0.1,0.1-0.1,0.1-0.2c0.2-0.5,0.4-1,0.6-1.5c0-0.1,0.1-0.2,0.1-0.2c0.2-0.5,0.4-1,0.6-1.4c0-0.1,0.1-0.2,0.1-0.3
		c0.2-0.5,0.3-1,0.5-1.4c0-0.1,0.1-0.2,0.1-0.3c0.2-0.5,0.3-0.9,0.5-1.4c0-0.1,0.1-0.2,0.1-0.4c0.1-0.5,0.3-0.9,0.4-1.4
		c0-0.1,0.1-0.3,0.1-0.4c0.1-0.4,0.3-0.9,0.4-1.4c0-0.2,0.1-0.3,0.1-0.5c0.1-0.4,0.2-0.9,0.3-1.3c0-0.2,0.1-0.3,0.1-0.5
		c0.1-0.4,0.2-0.9,0.3-1.3c0-0.2,0.1-0.4,0.1-0.5c0.1-0.4,0.2-0.9,0.2-1.3c0-0.2,0.1-0.4,0.1-0.6c0.1-0.4,0.1-0.8,0.2-1.3
		c0-0.2,0.1-0.4,0.1-0.6c0.1-0.4,0.1-0.8,0.2-1.2c0-0.2,0.1-0.4,0.1-0.6c0.1-0.4,0.1-0.8,0.1-1.2c0-0.2,0.1-0.5,0.1-0.7
		c0-0.4,0.1-0.8,0.1-1.2c0-0.2,0-0.5,0.1-0.7c0-0.4,0.1-0.8,0.1-1.2c0-0.2,0-0.4,0-0.7c0-0.4,0-0.9,0.1-1.4c0-0.2,0-0.4,0-0.6
		c0-0.6,0-1.3,0-1.9c0-0.6,0-1.2,0-1.8C160.2,81.5,160.2,81.3,160.2,81.2z M100.4,141.9H83.7H71.1v-26.9V51.3l-10.9-0.1l0-4.2
		l0.1-10.5l8.7-7.7l5.4-4.8h26V141.9z M107.7,71.8c0-4.7,3.8-8.4,8.4-8.4c4.7,0,8.4,3.8,8.4,8.4c0,4.6-3.8,8.4-8.4,8.4
		C111.5,80.3,107.7,76.5,107.7,71.8z M111.1,99.2l26.2-35.9h6.1l-1.4,1.9l-18.2,24.9l-6.6,9.1H111.1z M129.7,90.7
		c0-4.7,3.8-8.4,8.4-8.4c4.6,0,8.4,3.8,8.4,8.4c0,4.7-3.8,8.4-8.4,8.4c-0.2,0-0.5,0-0.7,0c-1.4-0.1-2.6-0.6-3.7-1.2
		C131.3,96.4,129.7,93.7,129.7,90.7z"/>
	<path class="planet st0" d="M141.9,90.7c0-2.1-1.7-3.7-3.7-3.7c-2.1,0-3.7,1.7-3.7,3.7c0,2.1,1.7,3.7,3.7,3.7
		C140.2,94.4,141.9,92.8,141.9,90.7z"/>
	<polygon class="planet st0" points="183,68.6 197.6,68.6 197.6,61.5 183,61.5 183,56.3 199.2,56.3 199.2,48.7 174.4,48.7 174.4,79.6
		183,79.6 	"/>
	<path class="planet st0" d="M218.8,80.3c9.5,0,16.7-7.2,16.7-16.1v-0.1c0-8.9-7.1-16-16.6-16c-9.5,0-16.7,7.2-16.7,16.1v0.1
		C202.2,73.2,209.3,80.3,218.8,80.3z M211,64.1c0-4.5,3.1-8.3,7.8-8.3c4.7,0,7.9,3.9,7.9,8.3v0.1c0,4.5-3.1,8.3-7.9,8.3
		C214.2,72.5,211,68.7,211,64.1L211,64.1z"/>
	<path class="planet st0" d="M248.7,70.3h3.7h0.1l6.2,9.4h9.9l-7.4-10.8c3.8-1.6,6.4-4.8,6.4-9.5v-0.1c0-3-0.9-5.4-2.7-7.2
		c-2.1-2.1-5.3-3.4-10.1-3.4h-14.6v30.9h8.6V70.3z M248.7,56.2h5.6c2.9,0,4.6,1.2,4.6,3.7v0.1c0,2.3-1.7,3.7-4.6,3.7h-5.7V56.2z"/>
	<polygon class="planet st0" points="287.9,79.6 296.5,79.6 296.5,56.3 305.8,56.3 305.8,48.7 278.7,48.7 278.7,56.3 287.9,56.3 	"/>
	<polygon class="planet st0" points="329.3,60.3 318.3,60.3 318.3,48.7 309.7,48.7 309.7,79.6 318.3,79.6 318.3,67.9 329.3,67.9
		329.3,79.6 337.9,79.6 337.9,48.7 329.3,48.7 	"/>
	<polygon class="planet st0" points="352,72.4 352,67.5 366.9,67.5 366.9,60.7 352,60.7 352,56 368.4,56 368.4,48.7 343.5,48.7 343.5,79.6
		368.6,79.6 368.6,72.4 	"/>
	<path class="planet st0" d="M188.4,85.8h-14.2v33.1h9.2v-9.5h4.5c8.2,0,14.2-4.1,14.2-11.9v-0.1C202.2,90.1,196.8,85.8,188.4,85.8z
		 M193,98c0,2.6-2,4.3-5.2,4.3h-4.3v-8.7h4.3C191,93.5,193,95,193,98L193,98z"/>
	<polygon class="st0" points="231.3,110.9 215.2,110.9 215.2,85.8 206,85.8 206,118.9 231.3,118.9 	"/>
	<path class="st0" d="M246.6,85.6l-14.1,33.3h9.6l2.4-5.9h12.8l2.4,5.9h9.8l-14.1-33.3H246.6z M247.2,105.8l3.7-9.4l3.7,9.4H247.2z"
		/>
	<polygon class="st0" points="294.9,103.3 281.3,85.8 272.8,85.8 272.8,118.9 281.8,118.9 281.8,100.7 296,118.9 304,118.9
		304,85.8 294.9,85.8 	"/>
	<polygon class="st0" points="319,105.8 334.9,105.8 334.9,98.6 319,98.6 319,93.6 336.5,93.6 336.5,85.8 309.9,85.8 309.9,118.9
		336.7,118.9 336.7,111.1 319,111.1 	"/>
	<polygon class="st0" points="339.6,93.8 349.5,93.8 349.5,118.9 358.7,118.9 358.7,93.8 368.6,93.8 368.6,85.8 339.6,85.8 	"/>
	<path class="st0" d="M365,115.5c0-0.7-0.5-1-1.2-1h-1.4v2.9h0.8v-0.9h0.3l0.6,0.9h0.9l-0.7-1C364.8,116.2,365,115.9,365,115.5z
		 M363.8,115.9h-0.5v-0.7h0.5c0.3,0,0.4,0.1,0.4,0.3C364.2,115.7,364.1,115.9,363.8,115.9z"/>
	<path class="st0" d="M363.7,113.1c-1.6,0-2.9,1.3-2.9,2.9v0c0,1.6,1.3,2.9,2.9,2.9c1.6,0,2.9-1.3,2.9-2.9v0
		C366.5,114.4,365.3,113.1,363.7,113.1z M366.1,116c0,1.3-1,2.4-2.4,2.4c-1.4,0-2.4-1.1-2.4-2.4v0c0-1.3,1-2.4,2.4-2.4
		C365,113.5,366.1,114.6,366.1,116L366.1,116z"/>
	<rect x="226.2" y="136.6" class="st0" width="11.2" height="2.2"/>
	<polygon class="st0" points="246.6,136.2 244.3,132.5 241.5,132.5 241.5,142 244.1,142 244.1,136.6 246.6,140.3 246.6,140.3
		249.1,136.5 249.1,142 251.7,142 251.7,132.5 248.9,132.5 	"/>
	<polygon class="st0" points="256.1,138.2 260.7,138.2 260.7,136.2 256.1,136.2 256.1,134.7 261.2,134.7 261.2,132.5 253.4,132.5
		253.4,142 261.2,142 261.2,139.8 256.1,139.8 	"/>
	<polygon class="st0" points="267.7,136.2 265.4,132.5 262.6,132.5 262.6,142 265.2,142 265.2,136.6 267.6,140.3 267.7,140.3
		270.1,136.5 270.1,142 272.8,142 272.8,132.5 270,132.5 	"/>
	<path class="st0" d="M281.2,137c0.8-0.4,1.5-1,1.5-2.1v0c0-0.7-0.2-1.2-0.6-1.5c-0.6-0.6-1.4-0.9-2.6-0.9h-4.9v9.5h4.9
		c2.3,0,3.6-1,3.6-2.6v0C283.1,138.1,282.3,137.4,281.2,137z M277.1,134.6h1.7c0.8,0,1.2,0.3,1.2,0.8v0c0,0.6-0.5,0.8-1.3,0.8h-1.7
		V134.6z M280.4,139c0,0.6-0.5,0.9-1.3,0.9h-2.1v-1.8h2C280,138.1,280.4,138.5,280.4,139L280.4,139z"/>
	<polygon class="st0" points="286.9,138.2 291.5,138.2 291.5,136.2 286.9,136.2 286.9,134.7 292,134.7 292,132.5 284.3,132.5
		284.3,142 292.1,142 292.1,139.8 286.9,139.8 	"/>
	<path class="st0" d="M301.9,135.7L301.9,135.7c0-1-0.3-1.7-0.8-2.2c-0.6-0.7-1.7-1-3.1-1h-4.5v9.5h2.7v-2.9h1.1h0l1.9,2.9h3.1
		l-2.3-3.3C301.2,138.2,301.9,137.2,301.9,135.7z M299.3,135.9c0,0.7-0.5,1.1-1.4,1.1h-1.8v-2.3h1.7
		C298.7,134.8,299.3,135.1,299.3,135.9L299.3,135.9z"/>
	<rect x="305.4" y="136.6" class="st0" width="11.2" height="2.2"/>
</g>
</svg>
