<?xml version="1.0" encoding="utf-8"?>
<!-- Generator: Adobe Illustrator 27.7.0, SVG Export Plug-In . SVG Version: 6.00 Build 0)  -->
<svg version="1.1" id="Layer_1" xmlns="http://www.w3.org/2000/svg" xmlns:xlink="http://www.w3.org/1999/xlink" x="0px" y="0px"
	 viewBox="0 0 378.9 167" style="enable-background:new 0 0 378.9 167;" xml:space="preserve">
<style type="text/css">
	.planet.planet st0{fill:#FFFFFF;}
</style>
<g>
	<path class="planet st0" d="M118.2,71c0-2.1-1.7-3.7-3.7-3.7c-2.1,0-3.7,1.7-3.7,3.7c0,2.1,1.7,3.7,3.7,3.7
		C116.6,74.7,118.2,73.1,118.2,71z"/>
	<path class="planet st0" d="M158.6,80.3c0-0.4,0-0.8,0-1.2c0-0.2,0-0.4,0-0.7c0-0.4,0-0.8-0.1-1.1c0-0.2,0-0.4,0-0.7
		c0-0.4-0.1-0.8-0.1-1.2c0-0.2,0-0.4-0.1-0.6c-0.1-0.6-0.1-1.1-0.2-1.7c0,0,0,0,0-0.1c-0.1-0.6-0.2-1.2-0.2-1.7
		c0-0.2-0.1-0.4-0.1-0.6c-0.1-0.4-0.1-0.8-0.2-1.2c0-0.2-0.1-0.4-0.1-0.7c-0.1-0.4-0.1-0.7-0.2-1.1c0-0.2-0.1-0.4-0.1-0.7
		c-0.1-0.4-0.2-0.7-0.2-1.1c0-0.2-0.1-0.4-0.1-0.6c-0.1-0.5-0.2-1-0.4-1.5c0-0.1,0-0.2-0.1-0.3c-0.1-0.5-0.3-1-0.4-1.6
		c-0.1-0.2-0.1-0.4-0.2-0.6c-0.1-0.3-0.2-0.7-0.3-1c-0.1-0.2-0.1-0.4-0.2-0.7c-0.1-0.3-0.2-0.6-0.3-1c-0.1-0.2-0.2-0.5-0.2-0.7
		c-0.1-0.3-0.2-0.7-0.3-1c-0.1-0.2-0.2-0.4-0.2-0.6c-0.1-0.4-0.3-0.8-0.5-1.2c-0.1-0.2-0.2-0.4-0.2-0.6c-0.2-0.4-0.3-0.8-0.5-1.3
		c-0.1-0.2-0.2-0.4-0.3-0.7c-0.1-0.3-0.3-0.6-0.4-0.9c-0.1-0.2-0.2-0.5-0.3-0.7c-0.1-0.3-0.3-0.5-0.4-0.8c-0.1-0.2-0.2-0.5-0.3-0.7
		c-0.1-0.3-0.3-0.5-0.4-0.8c-0.1-0.2-0.2-0.5-0.4-0.7c-0.2-0.3-0.3-0.6-0.5-0.9c-0.2-0.4-0.4-0.7-0.6-1.1c-0.2-0.3-0.3-0.6-0.5-0.9
		c-0.1-0.2-0.3-0.5-0.4-0.7c-0.1-0.2-0.3-0.5-0.4-0.7c-0.2-0.3-0.3-0.5-0.5-0.8c-0.1-0.2-0.3-0.4-0.4-0.7c-0.2-0.3-0.3-0.5-0.5-0.8
		c-0.1-0.2-0.3-0.4-0.4-0.6c-0.2-0.3-0.3-0.5-0.5-0.8c-0.1-0.2-0.2-0.4-0.4-0.5c-0.4-0.5-0.8-1.1-1.2-1.6c-0.1-0.1-0.2-0.3-0.3-0.4
		c-0.2-0.3-0.4-0.5-0.6-0.8c-0.1-0.2-0.2-0.3-0.4-0.5c-0.2-0.3-0.4-0.5-0.6-0.8c-0.1-0.2-0.3-0.3-0.4-0.5c-0.2-0.3-0.4-0.5-0.7-0.8
		c-0.1-0.1-0.2-0.3-0.4-0.4c-0.2-0.3-0.5-0.6-0.7-0.8c-0.1-0.1-0.1-0.1-0.2-0.2c-0.9-1-1.8-2-2.7-2.9c-0.1-0.1-0.2-0.2-0.3-0.3
		c-0.3-0.3-0.5-0.5-0.8-0.8c-0.1-0.1-0.2-0.2-0.3-0.3c-0.3-0.3-0.6-0.5-0.8-0.8c-0.1-0.1-0.2-0.2-0.3-0.3c-0.7-0.6-1.4-1.3-2.1-1.9
		c-0.7-0.6-1.4-1.2-2.2-1.8c-0.1,0-0.1-0.1-0.2-0.1c-0.3-0.3-0.7-0.5-1-0.8c-0.1-0.1-0.2-0.1-0.2-0.2c-0.3-0.3-0.7-0.5-1-0.8
		c-0.1,0-0.1-0.1-0.2-0.1c-0.9-0.6-1.8-1.3-2.7-1.9c-0.7-0.5-1.4-0.9-2.2-1.4c0,0,0,0,0,0c-0.4-0.2-0.8-0.5-1.2-0.7
		c0,0-0.1-0.1-0.1-0.1c-0.4-0.2-0.8-0.5-1.2-0.7c0,0,0,0-0.1,0c-1.3-0.8-2.7-1.5-4.1-2.1c-0.8-0.4-1.7-0.8-2.6-1.2c0,0-0.1,0-0.1,0
		c-0.5-0.2-0.9-0.4-1.4-0.6c0,0,0,0,0,0c-1.6-0.6-3.1-1.2-4.8-1.8c-0.8-0.3-1.6-0.5-2.4-0.8c0,0,0,0-0.1,0c-0.5-0.1-0.9-0.3-1.4-0.4
		c0,0-0.1,0-0.1,0c0,0,0,0,0,0c-6.3-1.7-13-2.7-19.9-2.7c-11,0-21.4,2.4-30.8,6.6c0,0,0,0,0,0c-0.1,0.1-0.3,0.1-0.4,0.2
		c-0.3,0.2-0.7,0.3-1,0.5c-0.2,0.1-0.4,0.2-0.5,0.3c-0.4,0.2-0.9,0.4-1.3,0.6c-0.1,0.1-0.3,0.1-0.4,0.2c-0.3,0.2-0.7,0.3-1,0.5
		c-0.2,0.1-0.3,0.2-0.5,0.3c-0.4,0.2-0.8,0.5-1.3,0.7c-0.1,0.1-0.3,0.2-0.4,0.3c-0.3,0.2-0.6,0.4-0.9,0.6c-0.2,0.1-0.3,0.2-0.5,0.3
		c-0.4,0.2-0.8,0.5-1.2,0.8c-0.1,0.1-0.3,0.2-0.4,0.3c-0.3,0.2-0.6,0.4-0.9,0.6c-0.2,0.1-0.3,0.2-0.5,0.3c-0.4,0.3-0.8,0.5-1.2,0.8
		c-0.2,0.1-0.3,0.2-0.5,0.3c-0.3,0.2-0.6,0.4-0.8,0.6c-0.2,0.1-0.3,0.2-0.5,0.4c-0.4,0.3-0.7,0.6-1.1,0.9c-0.2,0.1-0.3,0.2-0.5,0.4
		c-0.3,0.2-0.5,0.4-0.8,0.6c-0.2,0.1-0.3,0.3-0.5,0.4c-0.4,0.3-0.7,0.6-1.1,0.9c-0.2,0.1-0.3,0.3-0.5,0.4c-0.2,0.2-0.5,0.4-0.7,0.7
		c-0.2,0.1-0.3,0.3-0.5,0.4c-0.3,0.3-0.7,0.6-1,0.9c-0.2,0.1-0.3,0.3-0.5,0.4c-0.2,0.2-0.5,0.4-0.7,0.7c-0.1,0.1-0.3,0.3-0.4,0.4
		c-0.3,0.3-0.6,0.6-0.9,1c-0.2,0.2-0.3,0.3-0.5,0.5c-0.2,0.2-0.4,0.4-0.6,0.7c-0.1,0.2-0.3,0.3-0.4,0.5c-0.3,0.3-0.6,0.7-0.9,1
		c-0.2,0.2-0.3,0.4-0.5,0.5c-0.2,0.2-0.4,0.5-0.6,0.7c-0.2,0.2-0.3,0.4-0.5,0.6c-0.3,0.3-0.5,0.6-0.8,1c-0.2,0.2-0.3,0.4-0.5,0.6
		c-0.2,0.2-0.3,0.5-0.5,0.7c-0.2,0.3-0.4,0.5-0.6,0.8c-0.2,0.3-0.4,0.6-0.6,0.8c-0.1,0.2-0.3,0.4-0.4,0.6c-0.2,0.2-0.3,0.5-0.5,0.7
		c-0.2,0.3-0.4,0.6-0.6,0.9c-0.2,0.3-0.3,0.5-0.5,0.8c-0.1,0.2-0.3,0.4-0.4,0.7c-0.1,0.2-0.3,0.4-0.4,0.7c-0.2,0.3-0.4,0.7-0.6,1
		c-0.1,0.2-0.3,0.5-0.4,0.7c-0.1,0.2-0.3,0.5-0.4,0.7c-0.1,0.2-0.2,0.4-0.4,0.6c-0.2,0.4-0.4,0.8-0.6,1.1c-0.1,0.2-0.2,0.4-0.3,0.6
		c-0.1,0.3-0.3,0.5-0.4,0.8c-0.1,0.2-0.2,0.4-0.3,0.6c-0.2,0.4-0.4,0.8-0.6,1.3c-0.1,0.2-0.2,0.4-0.3,0.6c-0.1,0.3-0.2,0.5-0.4,0.8
		c-0.1,0.2-0.2,0.4-0.3,0.6c-0.2,0.5-0.4,0.9-0.6,1.4c-0.1,0.2-0.2,0.4-0.2,0.6c-0.1,0.3-0.2,0.6-0.3,0.9c-0.1,0.2-0.1,0.4-0.2,0.5
		c-0.2,0.5-0.4,1-0.5,1.5c-0.1,0.2-0.1,0.4-0.2,0.5c-0.1,0.3-0.2,0.6-0.3,0.9c-0.1,0.2-0.1,0.3-0.2,0.5c-0.2,0.5-0.3,1.1-0.5,1.6
		c-0.1,0.2-0.1,0.3-0.2,0.5c-0.1,0.3-0.2,0.6-0.3,0.9c0,0.1-0.1,0.3-0.1,0.4c-0.2,0.6-0.3,1.1-0.4,1.7c0,0.2-0.1,0.3-0.1,0.5
		c-0.1,0.3-0.2,0.6-0.2,1c0,0.1,0,0.2-0.1,0.3c-0.1,0.6-0.3,1.2-0.4,1.9c0,0.2-0.1,0.3-0.1,0.5c-0.1,0.3-0.1,0.7-0.2,1
		c0,0,0,0.1,0,0.1c-0.1,0.7-0.2,1.4-0.3,2.1c0,0.2,0,0.3-0.1,0.5c0,0.3-0.1,0.7-0.1,1c0,0,0,0,0,0c-0.4,3-0.6,6.1-0.6,9.2
		c0,28,15.4,52.5,38.2,65.3c0,0,0,0,0,0c0.1,0.1,0.3,0.1,0.4,0.2c0.5,0.3,0.9,0.5,1.4,0.7c0.2,0.1,0.4,0.2,0.5,0.3
		c0.3,0.1,0.5,0.3,0.8,0.4c0.2,0.1,0.3,0.2,0.5,0.3c0.6,0.3,1.2,0.6,1.7,0.8c0.1,0,0.2,0.1,0.2,0.1c0.3,0.1,0.6,0.3,0.9,0.4
		c0.1,0.1,0.3,0.1,0.4,0.2c1,0.5,2.1,0.9,3.2,1.3c0.1,0,0.2,0.1,0.2,0.1c1.2,0.4,2.3,0.8,3.5,1.2c0,0,0,0,0,0c1.6,0.5,3.3,1,4.9,1.4
		c0,0,0,0,0,0l0,0c5.8,1.4,11.8,2.2,18,2.2c20.4,0,39-8.2,52.5-21.5l0,0c0,0,0,0,0,0c0.5-0.5,0.9-0.9,1.4-1.4c0,0,0,0,0.1-0.1
		c0.5-0.5,0.9-1,1.4-1.5c0,0,0,0,0,0c0.9-1,1.8-2,2.7-3.1c0,0,0,0,0,0c0.4-0.5,0.8-1,1.2-1.5c0-0.1,0.1-0.1,0.1-0.2
		c0.4-0.5,0.8-1,1.1-1.5c0-0.1,0.1-0.1,0.1-0.2c0.4-0.5,0.7-1,1.1-1.5c0-0.1,0.1-0.1,0.1-0.2c0.4-0.5,0.7-1.1,1.1-1.6c0,0,0,0,0,0
		c0.3-0.5,0.7-1,1-1.5c0,0,0,0,0,0c0.3-0.5,0.6-1,0.9-1.5c0,0,0,0,0,0c0.3-0.5,0.6-1,0.9-1.5c0,0,0,0,0-0.1c0.3-0.5,0.5-1,0.8-1.5
		c0,0,0-0.1,0.1-0.1c0.3-0.5,0.5-1,0.8-1.5c0,0,0-0.1,0.1-0.1c0.2-0.5,0.5-1,0.7-1.5c0-0.1,0.1-0.1,0.1-0.2c0.2-0.5,0.4-1,0.7-1.5
		c0-0.1,0.1-0.1,0.1-0.2c0.2-0.5,0.4-1,0.6-1.5c0-0.1,0.1-0.2,0.1-0.2c0.2-0.5,0.4-1,0.6-1.4c0-0.1,0.1-0.2,0.1-0.3
		c0.2-0.5,0.3-1,0.5-1.4c0-0.1,0.1-0.2,0.1-0.3c0.2-0.5,0.3-0.9,0.5-1.4c0-0.1,0.1-0.2,0.1-0.4c0.1-0.5,0.3-0.9,0.4-1.4
		c0-0.1,0.1-0.3,0.1-0.4c0.1-0.4,0.3-0.9,0.4-1.4c0-0.2,0.1-0.3,0.1-0.5c0.1-0.4,0.2-0.9,0.3-1.3c0-0.2,0.1-0.3,0.1-0.5
		c0.1-0.4,0.2-0.9,0.3-1.3c0-0.2,0.1-0.4,0.1-0.5c0.1-0.4,0.2-0.9,0.2-1.3c0-0.2,0.1-0.4,0.1-0.6c0.1-0.4,0.1-0.8,0.2-1.3
		c0-0.2,0.1-0.4,0.1-0.6c0.1-0.4,0.1-0.8,0.2-1.2c0-0.2,0.1-0.4,0.1-0.6c0.1-0.4,0.1-0.8,0.1-1.2c0-0.2,0.1-0.5,0.1-0.7
		c0-0.4,0.1-0.8,0.1-1.2c0-0.2,0-0.5,0.1-0.7c0-0.4,0.1-0.8,0.1-1.2c0-0.2,0-0.4,0-0.7c0-0.4,0-0.9,0.1-1.4c0-0.2,0-0.4,0-0.6
		c0-0.6,0-1.3,0-1.9c0-0.6,0-1.2,0-1.8C158.6,80.7,158.6,80.5,158.6,80.3z M98.8,141.1H82H69.5v-26.9V50.5l-10.9-0.1l0-4.2l0.1-10.5
		l8.7-7.7l5.4-4.8h26V141.1z M106.1,71c0-4.7,3.8-8.4,8.4-8.4c4.7,0,8.4,3.8,8.4,8.4c0,4.6-3.8,8.4-8.4,8.4
		C109.9,79.4,106.1,75.7,106.1,71z M109.5,98.3l26.2-35.9h6.1l-1.4,1.9l-18.2,24.9l-6.6,9.1H109.5z M128.1,89.9
		c0-4.7,3.8-8.4,8.4-8.4c4.6,0,8.4,3.8,8.4,8.4c0,4.7-3.8,8.4-8.4,8.4c-0.2,0-0.5,0-0.7,0c-1.4-0.1-2.6-0.6-3.7-1.2
		C129.7,95.6,128.1,92.9,128.1,89.9z"/>
	<path class="planet st0" d="M140.2,89.9c0-2.1-1.7-3.7-3.7-3.7c-2.1,0-3.7,1.7-3.7,3.7c0,2.1,1.7,3.7,3.7,3.7
		C138.6,93.6,140.2,91.9,140.2,89.9z"/>
	<polygon class="planet st0" points="181.4,67.8 196,67.8 196,60.7 181.4,60.7 181.4,55.4 197.5,55.4 197.5,47.9 172.8,47.9 172.8,78.8
		181.4,78.8 	"/>
	<path class="planet st0" d="M217.2,79.4c9.5,0,16.7-7.2,16.7-16.1v-0.1c0-8.9-7.1-16-16.6-16c-9.5,0-16.7,7.2-16.7,16.1v0.1
		C200.6,72.3,207.6,79.4,217.2,79.4z M209.4,63.3c0-4.5,3.1-8.3,7.8-8.3c4.7,0,7.9,3.9,7.9,8.3v0.1c0,4.5-3.1,8.3-7.9,8.3
		C212.6,71.7,209.4,67.8,209.4,63.3L209.4,63.3z"/>
	<path class="planet st0" d="M247.1,69.5h3.7h0.1l6.2,9.4h9.9l-7.4-10.8c3.8-1.6,6.4-4.8,6.4-9.5v-0.1c0-3-0.9-5.4-2.7-7.2
		c-2.1-2.1-5.3-3.4-10.1-3.4h-14.6v30.9h8.6V69.5z M247.1,55.3h5.6c2.9,0,4.6,1.2,4.6,3.7v0.1c0,2.3-1.7,3.7-4.6,3.7h-5.7V55.3z"/>
	<polygon class="planet st0" points="286.3,78.8 294.9,78.8 294.9,55.4 304.1,55.4 304.1,47.9 277,47.9 277,55.4 286.3,55.4 	"/>
	<polygon class="planet st0" points="327.7,59.5 316.7,59.5 316.7,47.9 308.1,47.9 308.1,78.8 316.7,78.8 316.7,67.1 327.7,67.1
		327.7,78.8 336.2,78.8 336.2,47.9 327.7,47.9 	"/>
	<polygon class="planet st0" points="350.4,71.5 350.4,66.6 365.2,66.6 365.2,59.9 350.4,59.9 350.4,55.2 366.8,55.2 366.8,47.9
		341.9,47.9 341.9,78.8 367,78.8 367,71.5 	"/>
	<path class="planet st0" d="M186.8,85h-14.2v33.1h9.2v-9.5h4.5c8.2,0,14.2-4.1,14.2-11.9v-0.1C200.5,89.3,195.1,85,186.8,85z M191.4,97.1
		c0,2.6-2,4.3-5.2,4.3h-4.3v-8.7h4.3C189.4,92.7,191.4,94.2,191.4,97.1L191.4,97.1z"/>
	<polygon class="planet st0" points="229.6,110 213.6,110 213.6,85 204.4,85 204.4,118.1 229.6,118.1 	"/>
	<path class="planet st0" d="M245,84.7l-14.1,33.3h9.6l2.4-5.9h12.8l2.4,5.9h9.8l-14.1-33.3H245z M245.6,105l3.7-9.4l3.7,9.4H245.6z"/>
	<polygon class="planet st0" points="293.3,102.5 279.7,85 271.1,85 271.1,118.1 280.2,118.1 280.2,99.9 294.4,118.1 302.4,118.1 302.4,85
		293.3,85 	"/>
	<polygon class="planet st0" points="317.3,105 333.2,105 333.2,97.8 317.3,97.8 317.3,92.8 334.9,92.8 334.9,85 308.3,85 308.3,118.1
		335.1,118.1 335.1,110.3 317.3,110.3 	"/>
	<polygon class="planet st0" points="337.9,93 347.9,93 347.9,118.1 357.1,118.1 357.1,93 367,93 367,85 337.9,85 	"/>
	<path class="planet st0" d="M363.4,114.6c0-0.7-0.5-1-1.2-1h-1.4v2.9h0.8v-0.9h0.3l0.6,0.9h0.9l-0.7-1
		C363.2,115.4,363.4,115.1,363.4,114.6z M362.2,115.1h-0.5v-0.7h0.5c0.3,0,0.4,0.1,0.4,0.3C362.6,114.9,362.4,115.1,362.2,115.1z"/>
	<path class="planet st0" d="M362,112.3c-1.6,0-2.9,1.3-2.9,2.9v0c0,1.6,1.3,2.9,2.9,2.9c1.6,0,2.9-1.3,2.9-2.9v0
		C364.9,113.6,363.6,112.3,362,112.3z M364.4,115.2c0,1.3-1,2.4-2.4,2.4c-1.4,0-2.4-1.1-2.4-2.4v0c0-1.3,1-2.4,2.4-2.4
		C363.4,112.7,364.4,113.8,364.4,115.2L364.4,115.2z"/>
	<rect x="224.6" y="135.8" class="planet st0" width="11.2" height="2.2"/>
	<polygon class="planet st0" points="245,135.3 242.7,131.6 239.9,131.6 239.9,141.2 242.5,141.2 242.5,135.7 244.9,139.4 245,139.4
		247.5,135.7 247.5,141.2 250.1,141.2 250.1,131.6 247.3,131.6 	"/>
	<polygon class="planet st0" points="254.4,137.4 259,137.4 259,135.3 254.4,135.3 254.4,133.9 259.5,133.9 259.5,131.6 251.8,131.6
		251.8,141.2 259.6,141.2 259.6,138.9 254.4,138.9 	"/>
	<polygon class="planet st0" points="266,135.3 263.8,131.6 260.9,131.6 260.9,141.2 263.5,141.2 263.5,135.7 266,139.4 266,139.4
		268.5,135.7 268.5,141.2 271.1,141.2 271.1,131.6 268.3,131.6 	"/>
	<path class="planet st0" d="M279.5,136.2c0.8-0.4,1.5-1,1.5-2.1v0c0-0.7-0.2-1.2-0.6-1.5c-0.6-0.6-1.4-0.9-2.6-0.9h-4.9v9.5h4.9
		c2.3,0,3.6-1,3.6-2.6v0C281.4,137.2,280.7,136.6,279.5,136.2z M275.4,133.8h1.7c0.8,0,1.2,0.3,1.2,0.8v0c0,0.6-0.5,0.8-1.3,0.8
		h-1.7V133.8z M278.8,138.2c0,0.6-0.5,0.9-1.3,0.9h-2.1v-1.8h2C278.4,137.3,278.8,137.6,278.8,138.2L278.8,138.2z"/>
	<polygon class="planet st0" points="285.3,137.4 289.9,137.4 289.9,135.3 285.3,135.3 285.3,133.9 290.4,133.9 290.4,131.6 282.6,131.6
		282.6,141.2 290.4,141.2 290.4,138.9 285.3,138.9 	"/>
	<path class="planet st0" d="M300.3,134.9L300.3,134.9c0-1-0.3-1.7-0.8-2.2c-0.6-0.7-1.7-1-3.1-1h-4.5v9.5h2.7v-2.9h1.1h0l1.9,2.9h3.1
		l-2.3-3.3C299.5,137.4,300.3,136.4,300.3,134.9z M297.6,135.1c0,0.7-0.5,1.1-1.4,1.1h-1.8v-2.3h1.7
		C297.1,133.9,297.6,134.3,297.6,135.1L297.6,135.1z"/>
	<rect x="303.8" y="135.8" class="planet st0" width="11.2" height="2.2"/>
</g>
</svg>
