<?xml version="1.0" encoding="utf-8"?>
<!-- Generator: Adobe Illustrator 27.7.0, SVG Export Plug-In . SVG Version: 6.00 Build 0)  -->
<svg version="1.1" id="Layer_1" xmlns="http://www.w3.org/2000/svg" xmlns:xlink="http://www.w3.org/1999/xlink" x="0px" y="0px"
	 viewBox="0 0 21.4 21.4" style="enable-background:new 0 0 21.4 21.4;" xml:space="preserve">
<style type="text/css">
	.st0{fill:#231F20;}
</style>
<g>
	<path class="st0" d="M10.7,3.9c2.1,0,2.4,0,3.3,0c0.5,0,1,0.1,1.5,0.3c0.7,0.3,1.3,0.8,1.5,1.5c0.2,0.5,0.3,1,0.3,1.5
		c0,0.8,0,1.1,0,3.3s0,2.4,0,3.3c0,0.5-0.1,1-0.3,1.5c-0.3,0.7-0.8,1.3-1.5,1.5c-0.5,0.2-1,0.3-1.5,0.3c-0.8,0-1.1,0-3.3,0
		s-2.4,0-3.3,0c-0.5,0-1-0.1-1.5-0.3c-0.7-0.3-1.2-0.8-1.5-1.5c-0.2-0.5-0.3-1-0.3-1.5c0-0.8,0-1.1,0-3.3s0-2.4,0-3.3
		c0-0.5,0.1-1,0.3-1.5c0.3-0.7,0.8-1.2,1.5-1.5C6.4,4.1,6.9,4,7.4,4C8.3,4,8.5,3.9,10.7,3.9L10.7,3.9z M10.7,2.5c-0.9,0-1.9,0-2.8,0
		c-0.2,0-0.4,0-0.5,0c-0.7,0-1.3,0.1-2,0.4C4.3,3.3,3.4,4.2,3,5.3c-0.2,0.6-0.4,1.3-0.4,2c0,0.9,0,1.1,0,3.3s0,2.5,0,3.3
		c0,0.7,0.2,1.3,0.4,1.9c0.4,1.1,1.3,2,2.4,2.4c0.6,0.2,1.3,0.4,2,0.4c0.9,0,1.1,0,3.3,0s2.5,0,3.3,0c0.7,0,1.3-0.1,2-0.4
		c1.1-0.4,2-1.3,2.4-2.4c0.2-0.6,0.4-1.3,0.4-2c0-0.9,0-1.1,0-3.3s0-2.5,0-3.3c0-0.7-0.1-1.3-0.4-2c-0.4-1.1-1.3-2-2.4-2.4
		c-0.6-0.2-1.3-0.4-2-0.4C12.9,2.5,11.8,2.5,10.7,2.5z"/>
	<path class="st0" d="M10.7,6.4c-2.3,0-4.1,1.9-4.1,4.1c0,2.3,1.9,4.1,4.1,4.1s4.1-1.9,4.1-4.1C14.8,8.3,13,6.4,10.7,6.4L10.7,6.4z
		 M10.7,13.2C9.2,13.2,8,12,8,10.5c0-1.5,1.2-2.7,2.7-2.7s2.7,1.2,2.7,2.7l0,0C13.4,12,12.2,13.2,10.7,13.2z"/>
	<circle class="st0" cx="15" cy="6.2" r="1"/>
</g>
</svg>
