<?xml version="1.0" encoding="utf-8"?>
<!-- Generator: Adobe Illustrator 27.7.0, SVG Export Plug-In . SVG Version: 6.00 Build 0)  -->
<svg version="1.1" id="Layer_1" xmlns="http://www.w3.org/2000/svg" xmlns:xlink="http://www.w3.org/1999/xlink" x="0px" y="0px"
	 viewBox="0 0 21.4 21.4" style="enable-background:new 0 0 21.4 21.4;" xml:space="preserve">
<style type="text/css">
	.st0{fill:#231F20;}
</style>
<g id="S4rlQo.tif_00000101812570884018206580000014561190161369758355_">
	<g>
		<path class="st0" d="M5.3,10.6C4.8,7.4,6,4.9,8.7,3.6c0,0.4,0,0.9,0,1.3c0.1-0.1,0.1-0.3,0.2-0.4c0.8-1.3,2.1-2.1,3.5-2.6
			c0.8-0.3,1.7-0.4,2.6-0.6c0.4-0.1,0.9-0.1,1.3-0.1c0.1,0,1.1-0.1,1.2-0.2c-0.6,2-0.9,3.9-2.3,5.4c0.4-0.1,0.8-0.1,1.2-0.1
			c-0.2,2.1-0.6,4.1-2.2,5.9c0.5-0.1,0.8-0.1,1.2-0.2c-0.1,0-0.2,0.4-0.2,0.5c-0.1,0.2-0.2,0.3-0.3,0.5c-0.2,0.3-0.4,0.6-0.6,0.9
			c-0.4,0.6-0.9,1.1-1.4,1.5c-0.6,0.5-1.2,0.8-1.8,1.2c-0.3,0.2-0.6,0.4-0.9,0.6c-0.3,0.2-0.5,0.5-0.4,0.8c0,0,0,0,0,0.1
			c0.1,0.3,0.2,0.6,0.3,0.9c0.1,0.2,0.3,0.6,0.1,0.9c-0.1,0.1-0.3,0.1-0.4,0c-0.2-0.2-0.3-0.5-0.3-0.7c-1.8-4.9-0.8-9.4,2.4-13.4
			c0.5-0.6,1.1-1.2,1.6-1.8C8.8,7.2,7,11.7,7.9,17.2c-2.1-1.5-3.7-5.1-3.5-7.7c0.3,0.4,0.7,0.8,1,1.2L5.3,10.6z"/>
	</g>
</g>
</svg>
