<?xml version="1.0" encoding="utf-8"?>
<!-- Generator: Adobe Illustrator 27.7.0, SVG Export Plug-In . SVG Version: 6.00 Build 0)  -->
<svg version="1.1" id="Layer_1" xmlns="http://www.w3.org/2000/svg" xmlns:xlink="http://www.w3.org/1999/xlink" x="0px" y="0px"
	 viewBox="0 0 21.4 21.4" style="enable-background:new 0 0 21.4 21.4;" xml:space="preserve">
<style type="text/css">
	.st0{fill:#231F20;}
</style>
<g>
	<path class="st0" d="M2.9,7.8h3.3v10.7H2.9V7.8z M4.6,2.5c1.1,0,1.9,0.9,1.9,1.9c0,1.1-0.9,1.9-1.9,1.9c-1.1,0-1.9-0.9-1.9-1.9
		C2.6,3.4,3.5,2.5,4.6,2.5L4.6,2.5"/>
	<path class="st0" d="M8.3,7.8h3.2v1.5h0.1c0.7-1.1,1.9-1.8,3.2-1.7c3.4,0,4,2.2,4,5.1v5.9h-3.3v-5.2c0-1.2,0-2.8-1.7-2.8
		s-2,1.4-2,2.8v5.3H8.3L8.3,7.8z"/>
</g>
</svg>
