<?xml version="1.0" encoding="utf-8"?>
<!-- Generator: Adobe Illustrator 27.7.0, SVG Export Plug-In . SVG Version: 6.00 Build 0)  -->
<svg version="1.1" id="Layer_1" xmlns="http://www.w3.org/2000/svg" xmlns:xlink="http://www.w3.org/1999/xlink" x="0px" y="0px"
	 viewBox="0 0 194.6 44.2" style="enable-background:new 0 0 194.6 44.2;" xml:space="preserve">
<g>
	<g>
		<path class="logo st0" d="M123.4,8.5h4.1c0.5,0,1,0.1,1.4,0.2s0.8,0.3,1.1,0.5c0.3,0.2,0.6,0.5,0.8,0.9c0.2,0.4,0.3,0.8,0.3,1.3
			c0,0.7-0.2,1.2-0.6,1.7c-0.4,0.4-0.9,0.7-1.5,1v0c0.4,0,0.7,0.1,1,0.3c0.3,0.2,0.6,0.4,0.8,0.6c0.2,0.3,0.4,0.6,0.5,0.9
			c0.1,0.3,0.2,0.7,0.2,1.1c0,0.5-0.1,1-0.3,1.4c-0.2,0.4-0.5,0.8-0.9,1c-0.4,0.3-0.8,0.5-1.3,0.6c-0.5,0.1-1,0.2-1.6,0.2h-4.1V8.5z
			 M125,13.4h2.2c0.3,0,0.6,0,0.9-0.1c0.3-0.1,0.5-0.2,0.7-0.3c0.2-0.1,0.4-0.3,0.5-0.6c0.1-0.2,0.2-0.5,0.2-0.8
			c0-0.5-0.2-0.9-0.5-1.2s-0.8-0.5-1.4-0.5H125V13.4z M125,19h2.4c0.2,0,0.5,0,0.8-0.1c0.3-0.1,0.6-0.2,0.8-0.3
			c0.3-0.2,0.5-0.4,0.7-0.6c0.2-0.3,0.3-0.6,0.3-1c0-0.7-0.2-1.2-0.7-1.6c-0.5-0.4-1.1-0.5-1.9-0.5H125V19z"/>
		<path class="logo st0" d="M140.7,20.4h-1.5v-1.2h0c-0.2,0.4-0.5,0.8-1,1c-0.5,0.3-1,0.4-1.6,0.4c-0.4,0-0.8-0.1-1.1-0.2
			c-0.3-0.1-0.7-0.3-0.9-0.5c-0.3-0.2-0.5-0.6-0.6-1c-0.2-0.4-0.2-0.8-0.2-1.4v-5.1h1.5v4.7c0,0.4,0.1,0.7,0.2,0.9
			c0.1,0.3,0.2,0.5,0.4,0.6c0.2,0.2,0.4,0.3,0.6,0.4c0.2,0.1,0.4,0.1,0.7,0.1c0.3,0,0.6-0.1,0.9-0.2c0.3-0.1,0.5-0.3,0.7-0.5
			c0.2-0.2,0.4-0.5,0.5-0.8s0.2-0.7,0.2-1.2v-4.1h1.5V20.4z"/>
		<path class="logo st0" d="M147.2,14.4c-0.2-0.2-0.4-0.4-0.7-0.6c-0.3-0.2-0.6-0.2-1-0.2c-0.4,0-0.7,0.1-0.9,0.2
			c-0.3,0.2-0.4,0.4-0.4,0.7c0,0.2,0.1,0.4,0.2,0.6c0.2,0.1,0.3,0.3,0.5,0.4s0.4,0.2,0.7,0.2c0.2,0,0.4,0.1,0.6,0.1
			c0.3,0.1,0.6,0.2,0.9,0.3c0.3,0.1,0.5,0.3,0.7,0.4s0.4,0.4,0.5,0.7c0.1,0.3,0.2,0.6,0.2,0.9c0,0.4-0.1,0.8-0.3,1.2
			c-0.2,0.3-0.4,0.6-0.7,0.8s-0.6,0.3-1,0.4c-0.4,0.1-0.8,0.1-1.2,0.1c-0.7,0-1.2-0.1-1.7-0.3c-0.5-0.2-0.9-0.6-1.3-1.1l1.1-0.9
			c0.2,0.2,0.5,0.5,0.8,0.7c0.3,0.2,0.7,0.3,1.1,0.3c0.2,0,0.4,0,0.6-0.1c0.2,0,0.4-0.1,0.5-0.2c0.2-0.1,0.3-0.2,0.4-0.3
			c0.1-0.1,0.1-0.3,0.1-0.4c0-0.2-0.1-0.4-0.2-0.6c-0.1-0.1-0.3-0.3-0.5-0.3c-0.2-0.1-0.4-0.2-0.6-0.2c-0.2-0.1-0.4-0.1-0.6-0.1
			c-0.3-0.1-0.6-0.2-0.9-0.3c-0.3-0.1-0.5-0.2-0.8-0.4c-0.2-0.2-0.4-0.4-0.5-0.6c-0.1-0.3-0.2-0.6-0.2-1c0-0.4,0.1-0.8,0.3-1.1
			c0.2-0.3,0.4-0.6,0.7-0.8c0.3-0.2,0.6-0.4,1-0.5s0.7-0.2,1.1-0.2c0.5,0,1.1,0.1,1.5,0.3c0.5,0.2,0.9,0.5,1.2,1L147.2,14.4z"/>
		<path class="logo st0" d="M150.2,9.6c0-0.3,0.1-0.6,0.3-0.8c0.2-0.2,0.5-0.3,0.8-0.3c0.3,0,0.6,0.1,0.8,0.3c0.2,0.2,0.3,0.5,0.3,0.8
			s-0.1,0.6-0.3,0.8c-0.2,0.2-0.5,0.3-0.8,0.3c-0.3,0-0.6-0.1-0.8-0.3C150.3,10.1,150.2,9.9,150.2,9.6z M150.5,12.4h1.5v8h-1.5V12.4
			z"/>
		<path class="logo st0" d="M154.5,12.4h1.5v1.2h0c0.2-0.4,0.5-0.8,1-1c0.5-0.3,1-0.4,1.6-0.4c0.4,0,0.7,0.1,1.1,0.2
			c0.4,0.1,0.7,0.3,0.9,0.5s0.5,0.6,0.6,0.9c0.2,0.4,0.2,0.8,0.2,1.4v5.1H160v-4.7c0-0.4,0-0.7-0.2-1c-0.1-0.3-0.2-0.5-0.4-0.6
			c-0.2-0.2-0.4-0.3-0.6-0.4c-0.2-0.1-0.4-0.1-0.7-0.1c-0.3,0-0.6,0.1-0.9,0.2c-0.3,0.1-0.5,0.3-0.7,0.5s-0.4,0.5-0.5,0.8
			c-0.1,0.3-0.2,0.7-0.2,1.2v4.1h-1.5V12.4z"/>
		<path class="logo st0" d="M164.9,17c0,0.3,0.1,0.7,0.2,0.9c0.2,0.3,0.4,0.5,0.6,0.7c0.2,0.2,0.5,0.4,0.9,0.5c0.3,0.1,0.7,0.2,1,0.2
			c0.5,0,0.9-0.1,1.2-0.3c0.3-0.2,0.7-0.5,1-0.9L171,19c-0.8,1.1-2,1.6-3.5,1.6c-0.6,0-1.2-0.1-1.7-0.3c-0.5-0.2-0.9-0.5-1.3-0.9
			c-0.4-0.4-0.6-0.8-0.8-1.3c-0.2-0.5-0.3-1.1-0.3-1.7c0-0.6,0.1-1.1,0.3-1.7c0.2-0.5,0.5-1,0.9-1.3c0.4-0.4,0.8-0.7,1.3-0.9
			c0.5-0.2,1.1-0.3,1.6-0.3c0.7,0,1.3,0.1,1.8,0.4c0.5,0.2,0.9,0.6,1.2,1c0.3,0.4,0.5,0.8,0.7,1.3c0.1,0.5,0.2,1,0.2,1.5V17H164.9z
			 M169.7,15.7c0-0.3-0.1-0.6-0.2-0.9s-0.2-0.5-0.4-0.7c-0.2-0.2-0.4-0.4-0.7-0.5c-0.3-0.1-0.6-0.2-1-0.2c-0.4,0-0.7,0.1-1,0.2
			c-0.3,0.1-0.6,0.3-0.8,0.5s-0.4,0.5-0.5,0.7c-0.1,0.3-0.2,0.5-0.2,0.8H169.7z"/>
		<path class="logo st0" d="M177.4,14.4c-0.2-0.2-0.4-0.4-0.7-0.6c-0.3-0.2-0.6-0.2-1-0.2c-0.4,0-0.7,0.1-0.9,0.2
			c-0.3,0.2-0.4,0.4-0.4,0.7c0,0.2,0.1,0.4,0.2,0.6c0.2,0.1,0.3,0.3,0.5,0.4s0.4,0.2,0.7,0.2s0.4,0.1,0.6,0.1
			c0.3,0.1,0.6,0.2,0.9,0.3c0.3,0.1,0.5,0.3,0.7,0.4s0.4,0.4,0.5,0.7c0.1,0.3,0.2,0.6,0.2,0.9c0,0.4-0.1,0.8-0.3,1.2
			c-0.2,0.3-0.4,0.6-0.7,0.8s-0.6,0.3-1,0.4c-0.4,0.1-0.8,0.1-1.2,0.1c-0.7,0-1.2-0.1-1.7-0.3c-0.5-0.2-0.9-0.6-1.3-1.1l1.1-0.9
			c0.2,0.2,0.5,0.5,0.8,0.7c0.3,0.2,0.7,0.3,1.1,0.3c0.2,0,0.4,0,0.6-0.1c0.2,0,0.4-0.1,0.5-0.2c0.2-0.1,0.3-0.2,0.4-0.3
			c0.1-0.1,0.1-0.3,0.1-0.4c0-0.2-0.1-0.4-0.2-0.6c-0.1-0.1-0.3-0.3-0.5-0.3c-0.2-0.1-0.4-0.2-0.6-0.2c-0.2-0.1-0.4-0.1-0.6-0.1
			c-0.3-0.1-0.6-0.2-0.9-0.3c-0.3-0.1-0.5-0.2-0.8-0.4c-0.2-0.2-0.4-0.4-0.5-0.6c-0.1-0.3-0.2-0.6-0.2-1c0-0.4,0.1-0.8,0.3-1.1
			c0.2-0.3,0.4-0.6,0.7-0.8c0.3-0.2,0.6-0.4,1-0.5s0.7-0.2,1.1-0.2c0.5,0,1.1,0.1,1.5,0.3c0.5,0.2,0.9,0.5,1.2,1L177.4,14.4z"/>
		<path class="logo st0" d="M184.9,14.4c-0.2-0.2-0.4-0.4-0.7-0.6c-0.3-0.2-0.6-0.2-1-0.2c-0.4,0-0.7,0.1-0.9,0.2
			c-0.3,0.2-0.4,0.4-0.4,0.7c0,0.2,0.1,0.4,0.2,0.6c0.2,0.1,0.3,0.3,0.5,0.4c0.2,0.1,0.4,0.2,0.7,0.2c0.2,0,0.4,0.1,0.6,0.1
			c0.3,0.1,0.6,0.2,0.9,0.3c0.3,0.1,0.5,0.3,0.7,0.4s0.4,0.4,0.5,0.7c0.1,0.3,0.2,0.6,0.2,0.9c0,0.4-0.1,0.8-0.3,1.2
			c-0.2,0.3-0.4,0.6-0.7,0.8c-0.3,0.2-0.6,0.3-1,0.4c-0.4,0.1-0.8,0.1-1.2,0.1c-0.7,0-1.2-0.1-1.7-0.3c-0.5-0.2-0.9-0.6-1.3-1.1
			l1.1-0.9c0.2,0.2,0.5,0.5,0.8,0.7c0.3,0.2,0.7,0.3,1.1,0.3c0.2,0,0.4,0,0.6-0.1c0.2,0,0.4-0.1,0.5-0.2c0.2-0.1,0.3-0.2,0.4-0.3
			c0.1-0.1,0.1-0.3,0.1-0.4c0-0.2-0.1-0.4-0.2-0.6c-0.1-0.1-0.3-0.3-0.5-0.3c-0.2-0.1-0.4-0.2-0.6-0.2c-0.2-0.1-0.4-0.1-0.6-0.1
			c-0.3-0.1-0.6-0.2-0.9-0.3c-0.3-0.1-0.5-0.2-0.8-0.4c-0.2-0.2-0.4-0.4-0.5-0.6c-0.1-0.3-0.2-0.6-0.2-1c0-0.4,0.1-0.8,0.3-1.1
			c0.2-0.3,0.4-0.6,0.7-0.8c0.3-0.2,0.6-0.4,1-0.5c0.4-0.1,0.7-0.2,1.1-0.2c0.5,0,1.1,0.1,1.5,0.3s0.9,0.5,1.2,1L184.9,14.4z"/>
		<path class="logo st0" d="M123.6,28.5h-1.7v-1.3h1.7v-1.8c0-1.1,0.2-1.9,0.6-2.4c0.4-0.5,1.1-0.8,2.1-0.8c0.2,0,0.3,0,0.5,0
			c0.2,0,0.4,0,0.6,0.1l-0.2,1.3c-0.1-0.1-0.3-0.1-0.4-0.1c-0.1,0-0.3,0-0.4,0c-0.3,0-0.5,0-0.7,0.1c-0.2,0.1-0.3,0.2-0.4,0.4
			c-0.1,0.2-0.2,0.3-0.2,0.6s0,0.5,0,0.7v1.8h1.8v1.3h-1.8v6.7h-1.5V28.5z"/>
		<path class="logo st0" d="M128.2,31.2c0-0.6,0.1-1.1,0.3-1.6c0.2-0.5,0.5-0.9,0.9-1.3s0.8-0.7,1.3-0.9s1.1-0.3,1.7-0.3
			c0.6,0,1.1,0.1,1.7,0.3s1,0.5,1.3,0.9s0.7,0.8,0.9,1.3c0.2,0.5,0.3,1,0.3,1.6c0,0.6-0.1,1.1-0.3,1.6c-0.2,0.5-0.5,1-0.9,1.3
			c-0.4,0.4-0.8,0.7-1.3,0.9c-0.5,0.2-1.1,0.3-1.7,0.3c-0.6,0-1.1-0.1-1.7-0.3c-0.5-0.2-1-0.5-1.3-0.9c-0.4-0.4-0.7-0.8-0.9-1.3
			C128.3,32.3,128.2,31.8,128.2,31.2z M129.8,31.2c0,0.4,0.1,0.8,0.2,1.1c0.1,0.3,0.3,0.6,0.5,0.9c0.2,0.2,0.5,0.4,0.8,0.6
			c0.3,0.1,0.7,0.2,1.1,0.2s0.8-0.1,1.1-0.2c0.3-0.1,0.6-0.3,0.8-0.6c0.2-0.2,0.4-0.5,0.5-0.9c0.1-0.3,0.2-0.7,0.2-1.1
			c0-0.4-0.1-0.8-0.2-1.1c-0.1-0.3-0.3-0.6-0.5-0.9c-0.2-0.2-0.5-0.4-0.8-0.6c-0.3-0.1-0.7-0.2-1.1-0.2s-0.8,0.1-1.1,0.2
			c-0.3,0.1-0.6,0.3-0.8,0.6c-0.2,0.2-0.4,0.5-0.5,0.9C129.9,30.4,129.8,30.8,129.8,31.2z"/>
		<path class="logo st0" d="M138.6,27.2h1.5v1.2h0c0.1-0.2,0.2-0.4,0.4-0.6c0.2-0.2,0.4-0.3,0.6-0.4c0.2-0.1,0.4-0.2,0.7-0.3
			c0.2-0.1,0.5-0.1,0.7-0.1c0.2,0,0.5,0,0.7,0.1l-0.1,1.6c-0.1,0-0.2-0.1-0.4-0.1c-0.1,0-0.2,0-0.4,0c-0.7,0-1.3,0.2-1.7,0.6
			c-0.4,0.4-0.6,1.1-0.6,1.9v4h-1.5V27.2z"/>
		<path class="logo st0" d="M160,28.5v5.9c-0.3,0.2-0.6,0.3-1,0.5c-0.4,0.1-0.8,0.2-1.2,0.3c-0.4,0.1-0.8,0.2-1.2,0.2
			c-0.4,0-0.8,0.1-1.2,0.1c-1,0-1.9-0.2-2.7-0.5c-0.8-0.3-1.5-0.8-2-1.4s-1-1.2-1.2-2c-0.3-0.8-0.4-1.6-0.4-2.4
			c0-0.9,0.2-1.7,0.5-2.5s0.7-1.4,1.3-2c0.5-0.6,1.2-1,2-1.3c0.8-0.3,1.6-0.5,2.5-0.5c1.1,0,2,0.1,2.7,0.4c0.7,0.3,1.3,0.7,1.7,1.1
			l-1.1,1.2c-0.5-0.5-1-0.8-1.6-1c-0.5-0.2-1.1-0.3-1.7-0.3c-0.7,0-1.3,0.1-1.8,0.4c-0.5,0.3-1,0.6-1.4,1c-0.4,0.4-0.7,0.9-0.9,1.5
			c-0.2,0.6-0.3,1.2-0.3,1.8c0,0.7,0.1,1.3,0.4,1.9c0.2,0.6,0.6,1.1,1,1.5c0.4,0.4,0.9,0.8,1.5,1c0.6,0.2,1.2,0.4,1.8,0.4
			c0.6,0,1.1-0.1,1.6-0.2c0.5-0.1,0.9-0.3,1.3-0.5V30h-2.6v-1.5H160z"/>
		<path class="logo st0" d="M162.2,31.2c0-0.6,0.1-1.1,0.3-1.6c0.2-0.5,0.5-0.9,0.9-1.3s0.8-0.7,1.3-0.9c0.5-0.2,1.1-0.3,1.7-0.3
			c0.6,0,1.1,0.1,1.7,0.3c0.5,0.2,1,0.5,1.3,0.9s0.7,0.8,0.9,1.3c0.2,0.5,0.3,1,0.3,1.6c0,0.6-0.1,1.1-0.3,1.6
			c-0.2,0.5-0.5,1-0.9,1.3c-0.4,0.4-0.8,0.7-1.3,0.9c-0.5,0.2-1.1,0.3-1.7,0.3c-0.6,0-1.1-0.1-1.7-0.3c-0.5-0.2-1-0.5-1.3-0.9
			c-0.4-0.4-0.7-0.8-0.9-1.3C162.3,32.3,162.2,31.8,162.2,31.2z M163.8,31.2c0,0.4,0.1,0.8,0.2,1.1c0.1,0.3,0.3,0.6,0.5,0.9
			c0.2,0.2,0.5,0.4,0.8,0.6c0.3,0.1,0.7,0.2,1.1,0.2c0.4,0,0.8-0.1,1.1-0.2c0.3-0.1,0.6-0.3,0.8-0.6c0.2-0.2,0.4-0.5,0.5-0.9
			c0.1-0.3,0.2-0.7,0.2-1.1c0-0.4-0.1-0.8-0.2-1.1c-0.1-0.3-0.3-0.6-0.5-0.9c-0.2-0.2-0.5-0.4-0.8-0.6c-0.3-0.1-0.7-0.2-1.1-0.2
			c-0.4,0-0.8,0.1-1.1,0.2c-0.3,0.1-0.6,0.3-0.8,0.6c-0.2,0.2-0.4,0.5-0.5,0.9C163.9,30.4,163.8,30.8,163.8,31.2z"/>
		<path class="logo st0" d="M172.2,31.2c0-0.6,0.1-1.1,0.3-1.6c0.2-0.5,0.5-0.9,0.9-1.3s0.8-0.7,1.3-0.9c0.5-0.2,1.1-0.3,1.7-0.3
			c0.6,0,1.1,0.1,1.7,0.3c0.5,0.2,1,0.5,1.3,0.9s0.7,0.8,0.9,1.3c0.2,0.5,0.3,1,0.3,1.6c0,0.6-0.1,1.1-0.3,1.6
			c-0.2,0.5-0.5,1-0.9,1.3c-0.4,0.4-0.8,0.7-1.3,0.9c-0.5,0.2-1.1,0.3-1.7,0.3c-0.6,0-1.1-0.1-1.7-0.3c-0.5-0.2-1-0.5-1.3-0.9
			c-0.4-0.4-0.7-0.8-0.9-1.3C172.3,32.3,172.2,31.8,172.2,31.2z M173.8,31.2c0,0.4,0.1,0.8,0.2,1.1c0.1,0.3,0.3,0.6,0.5,0.9
			c0.2,0.2,0.5,0.4,0.8,0.6c0.3,0.1,0.7,0.2,1.1,0.2c0.4,0,0.8-0.1,1.1-0.2c0.3-0.1,0.6-0.3,0.8-0.6c0.2-0.2,0.4-0.5,0.5-0.9
			c0.1-0.3,0.2-0.7,0.2-1.1c0-0.4-0.1-0.8-0.2-1.1c-0.1-0.3-0.3-0.6-0.5-0.9c-0.2-0.2-0.5-0.4-0.8-0.6c-0.3-0.1-0.7-0.2-1.1-0.2
			c-0.4,0-0.8,0.1-1.1,0.2c-0.3,0.1-0.6,0.3-0.8,0.6c-0.2,0.2-0.4,0.5-0.5,0.9C173.9,30.4,173.8,30.8,173.8,31.2z"/>
		<path class="logo st0" d="M190.5,35.2H189V34h0c-0.3,0.4-0.7,0.8-1.2,1c-0.5,0.2-1,0.4-1.6,0.4c-0.6,0-1.2-0.1-1.7-0.3
			s-0.9-0.5-1.3-0.9c-0.4-0.4-0.6-0.8-0.8-1.3c-0.2-0.5-0.3-1.1-0.3-1.6c0-0.6,0.1-1.1,0.3-1.7c0.2-0.5,0.5-1,0.8-1.3
			c0.4-0.4,0.8-0.7,1.3-0.9c0.5-0.2,1.1-0.3,1.7-0.3c0.6,0,1.1,0.1,1.6,0.4c0.5,0.2,0.9,0.6,1.2,1h0v-5.9h1.5V35.2z M186.4,34
			c0.4,0,0.8-0.1,1.1-0.2c0.3-0.1,0.6-0.3,0.8-0.6c0.2-0.2,0.4-0.5,0.5-0.9c0.1-0.3,0.2-0.7,0.2-1.1c0-0.4-0.1-0.8-0.2-1.1
			c-0.1-0.3-0.3-0.6-0.5-0.9c-0.2-0.2-0.5-0.4-0.8-0.6c-0.3-0.1-0.7-0.2-1.1-0.2c-0.4,0-0.8,0.1-1.1,0.2c-0.3,0.1-0.6,0.3-0.8,0.6
			c-0.2,0.2-0.4,0.5-0.5,0.9c-0.1,0.3-0.2,0.7-0.2,1.1c0,0.4,0.1,0.8,0.2,1.1c0.1,0.3,0.3,0.6,0.5,0.9c0.2,0.2,0.5,0.4,0.8,0.6
			C185.6,33.9,186,34,186.4,34z"/>
	</g>
	<g>
		<g>
			<g>
				<g>
					<g>
						<path class="logo st0" d="M27,21.9c0,1.2-0.2,2.4-0.5,3.5c-0.3,1.1-0.8,2.2-1.4,3.1c-0.6,1-1.3,1.8-2.1,2.6c-0.8,0.8-1.7,1.4-2.7,2
							c-1,0.5-2.1,1-3.2,1.3c-1.1,0.3-2.3,0.4-3.6,0.4l-8.6,0c-0.2,0-0.4,0-0.6-0.1c-0.2-0.1-0.2-0.3-0.2-0.6L4.2,9.6
							c0-0.2,0.1-0.4,0.2-0.6C4.5,8.8,4.7,8.8,5,8.8l8.6,0c1.2,0,2.4,0.2,3.6,0.5c1.1,0.3,2.2,0.7,3.2,1.3c1,0.6,1.9,1.2,2.7,2
							c0.8,0.8,1.5,1.7,2.1,2.6c0.6,1,1,2,1.3,3.1C26.8,19.5,27,20.7,27,21.9z M10.9,15.1l0,13.5l1.5,0c0.3,0,0.5,0,0.8,0
							c0.3,0,0.5,0,0.8-0.1c0.9-0.1,1.7-0.3,2.5-0.6c0.8-0.4,1.4-0.8,2-1.4c0.6-0.6,1-1.3,1.3-2c0.3-0.8,0.5-1.6,0.5-2.6
							c0-1-0.2-1.9-0.5-2.7c-0.4-0.8-0.9-1.5-1.5-2.1c-0.6-0.6-1.4-1.1-2.2-1.4c-0.8-0.3-1.7-0.5-2.7-0.5L10.9,15.1z"/>
						<path class="logo st0" d="M36.8,24.5c0,0.9,0.1,1.6,0.4,2.2c0.2,0.6,0.6,1.1,0.9,1.5c0.4,0.4,0.8,0.7,1.4,0.8
							c0.5,0.2,1.1,0.3,1.6,0.3c0.6,0,1.1-0.1,1.7-0.3c0.5-0.2,1-0.5,1.4-0.9c0.4-0.4,0.7-0.9,0.9-1.5c0.2-0.6,0.3-1.3,0.4-2.1
							l0.1-14.9c0-0.2,0.1-0.4,0.2-0.5c0.1-0.2,0.3-0.2,0.6-0.2l5.1,0c0.3,0,0.5,0.1,0.6,0.2c0.2,0.2,0.2,0.3,0.2,0.5l-0.1,14.8
							c0,2-0.3,3.8-0.9,5.2c-0.6,1.4-1.4,2.5-2.4,3.4c-1,0.8-2.2,1.4-3.5,1.8c-1.3,0.4-2.7,0.5-4.2,0.5c-1.5,0-2.9-0.2-4.2-0.6
							c-1.3-0.4-2.5-1-3.5-1.9c-1-0.9-1.8-2-2.4-3.4C30.3,28,30,26.3,30,24.3l0.1-14.8c0-0.2,0.1-0.4,0.2-0.5
							c0.1-0.2,0.3-0.2,0.5-0.2l5.2,0c0.2,0,0.4,0.1,0.6,0.2c0.2,0.1,0.3,0.3,0.3,0.6L36.8,24.5z"/>
						<path class="logo st0" d="M76.4,10.8c0.2,0.1,0.3,0.3,0.4,0.5c0.1,0.2,0.1,0.4-0.1,0.7l-3,4.2c-0.1,0.2-0.3,0.3-0.4,0.3
							c-0.1,0-0.3,0-0.5-0.2c-0.6-0.4-1.2-0.8-1.9-1c-0.7-0.2-1.4-0.4-2.2-0.4c-1,0-1.8,0.2-2.7,0.5c-0.8,0.4-1.5,0.9-2.1,1.5
							c-0.6,0.6-1,1.4-1.4,2.2c-0.3,0.8-0.5,1.7-0.5,2.7c0,1,0.2,1.9,0.5,2.7c0.3,0.8,0.8,1.6,1.4,2.2c0.6,0.6,1.3,1.1,2.1,1.5
							c0.8,0.4,1.7,0.6,2.6,0.6c0.8,0,1.5-0.1,2.2-0.4c0.7-0.2,1.3-0.6,1.9-1c0.2-0.1,0.4-0.2,0.5-0.2c0.1,0,0.3,0.1,0.4,0.3l3,4.3
							c0.1,0.3,0.1,0.5,0.1,0.6c-0.1,0.2-0.2,0.3-0.4,0.4c-1.1,0.7-2.3,1.3-3.6,1.7c-1.3,0.4-2.6,0.6-4,0.6c-1.2,0-2.4-0.2-3.6-0.5
							c-1.1-0.3-2.2-0.8-3.2-1.4c-1-0.6-1.9-1.3-2.7-2.1c-0.8-0.8-1.5-1.7-2.1-2.7c-0.6-1-1-2.1-1.3-3.2c-0.3-1.1-0.5-2.3-0.5-3.6
							c0-1.2,0.2-2.4,0.5-3.6c0.3-1.1,0.8-2.2,1.4-3.2c0.6-1,1.3-1.9,2.1-2.7c0.8-0.8,1.7-1.5,2.7-2.1c1-0.6,2.1-1,3.2-1.3
							c1.1-0.3,2.3-0.5,3.6-0.5c1.4,0,2.7,0.2,4,0.6C74.1,9.5,75.3,10.1,76.4,10.8z"/>
						<path class="logo st0" d="M77.5,22c0-1.2,0.2-2.4,0.5-3.6c0.3-1.1,0.8-2.2,1.4-3.2c0.6-1,1.3-1.9,2.1-2.7c0.8-0.8,1.7-1.5,2.7-2.1
							c1-0.6,2.1-1,3.2-1.3c1.1-0.3,2.3-0.5,3.6-0.5c1.2,0,2.4,0.2,3.6,0.5c1.1,0.3,2.2,0.8,3.2,1.4c1,0.6,1.9,1.3,2.7,2.1
							c0.8,0.8,1.5,1.7,2.1,2.7c0.6,1,1,2.1,1.3,3.2c0.3,1.1,0.5,2.3,0.5,3.6c0,1.2-0.2,2.4-0.5,3.6c-0.3,1.1-0.8,2.2-1.4,3.2
							c-0.6,1-1.3,1.9-2.1,2.7c-0.8,0.8-1.7,1.5-2.7,2.1c-1,0.6-2.1,1-3.2,1.3c-1.1,0.3-2.3,0.5-3.6,0.5c-1.2,0-2.4-0.2-3.6-0.5
							c-1.1-0.3-2.2-0.8-3.2-1.4c-1-0.6-1.9-1.3-2.7-2.1c-0.8-0.8-1.5-1.7-2.1-2.7c-0.6-1-1-2.1-1.3-3.2
							C77.7,24.4,77.5,23.2,77.5,22z M84.3,22c0,1,0.2,1.9,0.5,2.7c0.3,0.8,0.8,1.6,1.4,2.2c0.6,0.6,1.3,1.1,2.1,1.5
							c0.8,0.4,1.7,0.5,2.7,0.5c1,0,1.9-0.2,2.7-0.5c0.8-0.4,1.5-0.8,2.1-1.5c0.6-0.6,1.1-1.4,1.4-2.2c0.3-0.8,0.5-1.7,0.5-2.7
							c0-1-0.2-1.9-0.5-2.7c-0.3-0.8-0.8-1.6-1.4-2.2c-0.6-0.6-1.3-1.1-2.1-1.5c-0.8-0.4-1.7-0.5-2.7-0.6c-1,0-1.9,0.2-2.7,0.5
							c-0.8,0.4-1.5,0.9-2.1,1.5s-1.1,1.4-1.4,2.2C84.5,20.1,84.3,21,84.3,22z"/>
					</g>
				</g>
			</g>
		</g>
	</g>
	<rect x="113.2" y="1.5" class="logo st0" width="1.2" height="41"/>
</g>
</svg>
